<?xml version="1.0" standalone="no"?><!DOCTYPE svg PUBLIC "-//W3C//DTD SVG 1.1//EN" "http://www.w3.org/Graphics/SVG/1.1/DTD/svg11.dtd"><svg t="1583374716211" class="icon" viewBox="0 0 1024 1024" version="1.1" xmlns="http://www.w3.org/2000/svg" p-id="1145" width="32" height="32" xmlns:xlink="http://www.w3.org/1999/xlink"><defs><style type="text/css"></style></defs><path d="M923 549.5H101.7c-20.6 0-37.3-16.7-37.3-37.3 0-20.6 16.7-37.3 37.3-37.3H923c20.6 0 37.3 16.7 37.3 37.3 0 20.6-16.7 37.3-37.3 37.3z" p-id="1146" fill="#01E7F6"></path><path d="M101.5 542.8c-9.5 0-19.1-3.6-26.4-10.9-14.6-14.6-14.6-38.1 0-52.7l343.5-343.5c14.6-14.6 38.1-14.6 52.7 0 14.6 14.6 14.6 38.1 0 52.7L127.8 531.9c-7.2 7.3-16.8 10.9-26.3 10.9z" p-id="1147" fill="#01E7F6"></path><path d="M444.9 889.8c-9.5 0-19.1-3.6-26.4-10.9L75.1 535.4c-14.6-14.6-14.6-38.1 0-52.7 14.6-14.6 38.1-14.6 52.7 0l343.5 343.5c14.6 14.6 14.6 38.1 0 52.7-7.3 7.3-16.8 10.9-26.4 10.9z" p-id="1148" fill="#01E7F6"></path></svg>